<?xml version="1.0" standalone="no"?>
<!DOCTYPE svg PUBLIC "-//W3C//DTD SVG 20010904//EN"
 "http://www.w3.org/TR/2001/REC-SVG-20010904/DTD/svg10.dtd">
<svg version="1.0" xmlns="http://www.w3.org/2000/svg"
 width="32.000000pt" height="32.000000pt" viewBox="0 0 32.000000 32.000000"
 preserveAspectRatio="xMidYMid meet">

<g transform="translate(0.000000,32.000000) scale(0.100000,-0.100000)"
fill="#000000" stroke="none">
<path d="M92 304 c-107 -55 -121 -198 -26 -271 96 -73 238 -10 251 111 14 119
-120 214 -225 160z m136 -24 c68 -42 91 -124 52 -188 -57 -94 -183 -94 -240 0
-71 117 71 259 188 188z"/>
<path d="M127 234 c-16 -16 -5 -24 34 -24 28 0 39 4 37 13 -5 13 -60 22 -71
11z"/>
<path d="M74 201 c-6 -6 -5 -77 1 -93 4 -10 26 -12 91 -10 l85 3 -3 51 -3 50
-83 1 c-46 1 -86 0 -88 -2z m121 -45 c0 -52 -63 -62 -73 -12 -7 33 6 47 40 44
29 -3 33 -7 33 -32z"/>
<path d="M142 153 c4 -23 32 -23 36 0 2 12 -3 17 -18 17 -15 0 -20 -5 -18 -17z"/>
</g>
</svg>
